<svg xmlns="http://www.w3.org/2000/svg" xmlns:xlink="http://www.w3.org/1999/xlink" version="1.1" width="63" height="60" xml:space="preserve"><g>
<path style="stroke: none; stroke-width: 1; stroke-dasharray: none; stroke-linecap: butt; stroke-dashoffset: 0; stroke-linejoin: miter; stroke-miterlimit: 4; fill: rgb(255,255,255); fill-rule: nonzero; opacity: 1;" d="M31.406249938011115,7.629394360719743e-8 L22.624999938011115,20.906250076293944 L-6.198888513608836e-8,22.625000076293944 L17.156249938011115,37.468750076293944 l-5.375,22.03125 l19.40625,-11.75 L50.499999938011115,59.656250076293944 L45.343749938011115,37.593750076293944 L62.624999938011115,22.906250076293944 l-22.59375,-1.90625 l-8.625,-21 zm-0.125,3.5625 l0,25.96875 l-6.0625,-6.90625 l6.0625,-19.0625 zm27.5625,20.5 l-24.6875,8.03125 l4.6875,-7.90625 l20,-0.125 zM4.312499938011115,24.187500076293944 L28.999999938011115,32.218750076293944 l-8.4375,3.625 l-16.25,-11.65625 zm25.75,10.875 l0.8437500000000002,9.15625 l-16.09375,11.84375 l15.25,-21 zm3.6875,0 l8.9375,2.03125 l6.3125,19 l-15.25,-21.03125 z" stroke-linecap="round" stroke-width="0" />
</g></svg>